<?xml version="1.0" encoding="utf-8"?>
<!-- Generator: Adobe Illustrator 23.0.1, SVG Export Plug-In . SVG Version: 6.00 Build 0)  -->
<svg version="1.1" id="Camada_1" focusable="false" xmlns="http://www.w3.org/2000/svg" xmlns:xlink="http://www.w3.org/1999/xlink"
	 x="0px" y="0px" viewBox="0 0 576 512" style="enable-background:new 0 0 576 512;" xml:space="preserve">
<style type="text/css">
	.st0{fill:#A51E24;}
</style>
<path class="st0" d="M13,352h32.4C67.2,454.7,181.9,512,288,512c106.2,0,220.9-57.4,242.6-160H563c10.7,0,16-12.9,8.5-20.5l-67-67
	c-4.7-4.7-12.3-4.7-17,0l-67,67c-7.6,7.6-2.2,20.5,8.5,20.5h35.1c-20.3,54.3-85,86.6-144.1,94V256h52c6.6,0,12-5.4,12-12v-40
	c0-6.6-5.4-12-12-12h-52v-5.5c37.3-13.2,64-48.7,64-90.5c0-52.2-42.4-95.3-94.6-96C235.7-0.7,192,42.5,192,96
	c0,41.8,26.7,77.4,64,90.5v5.5h-52c-6.6,0-12,5.4-12,12v40c0,6.6,5.4,12,12,12h52v190c-58.9-7.4-123.8-39.7-144.1-94H147
	c10.7,0,16-12.9,8.5-20.5l-67-67c-4.7-4.7-12.3-4.7-17,0l-67,67C-3.1,339.1,2.3,352,13,352z M288,64c17.6,0,32,14.4,32,32
	s-14.4,32-32,32s-32-14.4-32-32S270.4,64,288,64z"/>
</svg>
