<?xml version="1.0" encoding="utf-8"?>
<!-- Generator: Adobe Illustrator 23.0.1, SVG Export Plug-In . SVG Version: 6.00 Build 0)  -->
<svg version="1.1" id="Camada_1" focusable="false" xmlns="http://www.w3.org/2000/svg" xmlns:xlink="http://www.w3.org/1999/xlink"
	 x="0px" y="0px" viewBox="0 0 576 512" style="enable-background:new 0 0 576 512;" xml:space="preserve">
<style type="text/css">
	.st0{fill:#A51E24;}
</style>
<path class="st0" d="M464,0H112c-4,0-7.8,2-10,5.4L2,152.6c-2.9,4.4-2.6,10.2,0.7,14.2l276,340.8c4.8,5.9,13.8,5.9,18.6,0l276-340.8
	c3.3-4.1,3.6-9.8,0.7-14.2L474.1,5.4C471.8,2,468.1,0,464,0z M444.7,48l63.3,96h-68.4l-51.7-96H444.7L444.7,48z M242.6,48h90.7
	l51.7,96H191L242.6,48z M131.3,48h56.8l-51.7,96H68L131.3,48z M88.3,192h51.4L208,352L88.3,192z M191.2,192h193.6L288,435.3
	L191.2,192L191.2,192z M368,352l68.2-160h51.4L368,352z"/>
</svg>
